<svg width="1440" height="1024" viewBox="0 0 1440 1024" fill="none" xmlns="http://www.w3.org/2000/svg">
<rect width="1440" height="1024" fill="#272727"/>
<path d="M436.239 434.611C437.109 453.229 437.544 470.02 437.544 484.984C437.544 515.086 436.065 543.448 433.107 570.07C431.367 583.642 425.625 594.691 415.881 603.217C406.137 611.743 394.044 616.006 379.602 616.006C368.64 616.006 358.113 613.918 348.021 609.742C337.929 605.74 329.664 599.911 323.226 592.255C316.788 584.599 313.395 575.725 313.047 565.633C313.047 553.105 313.221 534.313 313.569 509.257C314.091 489.943 314.352 470.368 314.352 450.532C314.352 438.178 314.265 429.304 314.091 423.91C318.441 423.91 321.747 423.823 324.009 423.649L334.971 423.388C343.149 423.388 350.196 424.258 356.112 425.998L355.851 429.913C356.373 430.087 357.243 430.261 358.461 430.435C359.679 430.609 360.636 430.87 361.332 431.218C360.636 444.268 360.288 459.754 360.288 477.676C360.288 502.732 361.419 530.572 363.681 561.196V560.674C364.029 562.588 364.812 563.893 366.03 564.589C367.422 565.111 369.162 565.372 371.25 565.372C374.556 565.372 377.514 564.415 380.124 562.501C382.734 560.587 384.474 557.89 385.344 554.41V554.932C386.214 535.096 386.649 511.171 386.649 483.157C386.997 457.753 387.345 438.787 387.693 426.259C397.089 424.867 406.05 424.171 414.576 424.171C418.23 424.171 421.275 424.432 423.711 424.954C426.147 425.302 428.235 426.085 429.975 427.303L431.019 429.391V430.696C432.933 431.218 434.325 431.827 435.195 432.523L436.239 434.611ZM414.054 426.781C407.616 426.781 399.699 427.39 390.303 428.608C390.129 435.916 389.955 444.79 389.781 455.23C389.607 465.496 389.52 473.413 389.52 478.981C389.172 512.911 388.65 538.228 387.954 554.932C387.084 558.934 384.996 562.153 381.69 564.589C378.558 566.851 375.078 567.982 371.25 567.982C367.77 567.982 364.551 567.025 361.593 565.111C358.809 563.023 356.895 560.065 355.851 556.237C353.589 529.093 352.458 501.166 352.458 472.456C352.458 455.926 352.806 441.136 353.502 428.086V427.825C348.804 426.607 342.975 425.998 336.015 425.998L325.053 426.259C323.139 426.433 320.355 426.52 316.701 426.52H316.44L316.701 426.781L316.962 451.315C316.962 470.455 316.701 489.682 316.179 508.996C315.831 534.052 315.657 552.931 315.657 565.633C315.831 574.855 318.789 582.685 324.531 589.123C330.273 595.561 337.581 600.346 346.455 603.478C355.329 606.61 364.638 608.176 374.382 608.176C388.998 608.176 400.743 604.261 409.617 596.431C418.491 588.601 423.711 577.987 425.277 564.589C428.235 540.055 429.714 511.78 429.714 479.764C429.714 464.8 429.279 448.009 428.409 429.391C425.625 427.651 420.84 426.781 414.054 426.781ZM525.731 606.61H522.86L511.376 581.554C507.722 574.072 504.155 566.59 500.675 559.108C497.369 551.452 494.672 544.753 492.584 539.011V567.721C492.584 588.949 492.758 603.478 493.106 611.308C489.452 612.526 484.754 613.135 479.012 613.135C475.88 613.135 473.096 613.048 470.66 612.874C468.398 612.7 466.484 612.526 464.918 612.352C460.568 611.83 456.044 611.569 451.346 611.569V606.349H446.126V585.469C446.126 574.507 445.952 558.586 445.604 537.706L445.343 491.248C445.343 463.93 446.213 439.918 447.953 419.212C452.129 418.168 456.827 417.646 462.047 417.646C465.701 417.646 470.573 418.168 476.663 419.212C482.753 420.082 485.972 421.213 486.32 422.605C486.842 424.519 487.799 425.824 489.191 426.52C490.583 427.042 491.366 427.477 491.54 427.825C494.498 435.133 497.891 442.963 501.719 451.315C505.547 459.667 511.115 471.499 518.423 486.811V481.33C518.423 476.632 518.249 470.281 517.901 462.277L517.64 443.485C517.466 441.223 517.553 437.656 517.901 432.784L518.162 423.649V417.907C524.252 416.689 531.386 416.08 539.564 416.08C545.828 416.08 552.44 416.776 559.4 418.168V422.605L564.62 423.388V509.518L564.881 554.149L564.62 569.026V593.56L564.881 604L564.62 611.308C564.098 611.482 562.88 611.83 560.966 612.352C559.052 612.874 556.616 613.135 553.658 613.135C549.482 613.135 545.045 612.874 540.347 612.352C534.779 612.004 530.69 611.83 528.08 611.83L525.731 606.61ZM557.051 598.78L556.79 577.9L557.051 548.929V526.483C557.051 516.565 556.964 509.17 556.79 504.298V420.256C551.918 419.212 546.176 418.69 539.564 418.69C533.126 418.69 526.862 419.212 520.772 420.256C520.424 431.74 520.25 439.483 520.25 443.485L520.511 461.494C520.859 469.846 521.033 476.458 521.033 481.33C521.033 484.462 520.859 487.594 520.511 490.726C520.163 493.684 519.728 495.337 519.206 495.685C518.858 495.685 515.813 489.943 510.071 478.459C504.329 466.801 500.066 458.014 497.282 452.098C495.89 448.792 494.498 445.747 493.106 442.963C491.714 440.179 490.67 438.091 489.974 436.699L487.103 430.696L483.71 422.866C483.71 422.17 480.926 421.561 475.358 421.039C469.79 420.517 465.353 420.256 462.047 420.256C457.175 420.256 453.26 420.604 450.302 421.3C448.736 440.266 447.953 463.582 447.953 491.248L448.214 537.967C448.562 558.499 448.736 574.333 448.736 585.469V603.739C452.738 603.739 456.827 604 461.003 604.522C462.395 604.696 464.135 604.87 466.223 605.044C468.311 605.218 470.834 605.305 473.792 605.305C478.142 605.305 481.97 604.87 485.276 604C485.102 602.086 485.015 598.78 485.015 594.082V582.337C485.015 566.677 485.189 551.713 485.537 537.445C485.885 523.177 486.32 516.043 486.842 516.043C487.364 516.043 488.495 518.653 490.235 523.873L492.845 531.703C496.151 540.925 502.937 556.759 513.203 579.205L524.426 604C528.254 604 532.256 604.261 536.432 604.783C542 605.131 546.002 605.305 548.438 605.305C551.57 605.305 554.441 604.87 557.051 604V598.78ZM628.317 423.127H633.537V426.781C633.537 440.527 633.45 452.62 633.276 463.06C633.102 473.5 632.928 482.2 632.754 489.16C632.058 517.348 631.71 538.75 631.71 553.366C631.71 572.332 632.232 590.863 633.276 608.959C630.492 611.743 624.141 613.135 614.223 613.135L602.478 612.874C599.868 612.7 596.214 612.613 591.516 612.613C587.688 612.613 583.947 613.048 580.293 613.918L580.554 607.654C577.596 608.002 575.769 608.35 575.073 608.698C576.291 590.776 576.9 574.42 576.9 559.63C576.9 549.712 576.813 541.012 576.639 533.53C576.465 525.874 576.291 519.61 576.117 514.738C575.421 494.902 575.073 479.851 575.073 469.585C575.073 452.533 575.943 435.046 577.683 417.124C580.119 416.776 581.685 416.602 582.381 416.602C587.253 416.602 592.299 416.776 597.519 417.124C601.521 417.646 606.741 417.907 613.179 417.907H628.317V423.127ZM613.44 420.517C609.264 420.517 602.478 420.256 593.082 419.734C587.862 419.386 583.86 419.212 581.076 419.212H580.032V419.734C578.466 433.828 577.683 450.358 577.683 469.324C577.683 479.416 577.77 488.203 577.944 495.685C578.118 503.167 578.292 509.431 578.466 514.477C579.162 535.009 579.51 550.582 579.51 561.196C579.51 575.812 578.988 590.428 577.944 605.044C580.38 604.696 582.381 604.522 583.947 604.522C586.035 604.522 589.863 604.696 595.431 605.044C601.695 605.392 606.567 605.566 610.047 605.566C618.399 605.566 623.532 604.609 625.446 602.695C624.402 583.903 623.88 564.937 623.88 545.797C623.88 531.529 624.228 510.649 624.924 483.157C625.098 476.197 625.272 467.584 625.446 457.318C625.62 447.052 625.707 435.133 625.707 421.561V420.517H613.44ZM734.482 494.902C735.7 498.556 736.309 502.558 736.309 506.908C736.309 511.084 736.222 514.303 736.048 516.565L735.787 528.31C735.787 530.92 735.874 533.269 736.048 535.357C736.222 537.271 736.309 539.011 736.309 540.577C736.309 542.317 733.786 543.622 728.74 544.492C723.868 545.188 716.995 545.884 708.121 546.58C706.903 546.754 705.685 546.841 704.467 546.841C703.423 546.841 702.466 546.928 701.596 547.102C700.378 564.676 699.769 582.598 699.769 600.868V611.308C692.113 612.178 681.934 612.613 669.232 612.613C658.096 612.613 651.31 611.743 648.874 610.003V606.61C646.09 606.088 644.35 605.479 643.654 604.783C643.654 569.287 643.741 543.274 643.915 526.744L644.176 424.171C650.092 422.953 660.184 421.909 674.452 421.039C688.72 419.995 702.64 419.473 716.212 419.473C736.918 419.473 753.535 420.952 766.063 423.91V428.086C766.759 428.434 768.499 428.782 771.283 429.13C771.283 433.48 771.37 437.047 771.544 439.831L771.805 454.447C771.805 458.449 771.544 464.365 771.022 472.195L747.01 473.5C724.564 474.718 709.165 475.675 700.813 476.371C699.769 480.199 699.247 483.244 699.247 485.506L698.986 488.377C698.986 490.117 700.291 490.987 702.901 490.987C713.689 490.987 722.476 490.552 729.262 489.682C729.784 490.9 730.219 492.814 730.567 495.424L734.482 494.902ZM728.479 535.357C728.131 531.529 727.957 528.31 727.957 525.7L728.218 513.172C728.392 510.562 728.479 506.908 728.479 502.21C728.479 497.338 728.218 494.119 727.696 492.553C724.738 493.075 720.562 493.336 715.168 493.336C709.948 493.336 706.555 493.336 704.989 493.336C701.335 493.336 698.551 493.075 696.637 492.553C694.897 492.031 693.592 490.9 692.722 489.16C691.852 487.246 691.417 484.288 691.417 480.286C691.417 475.936 692.2 472.108 693.766 468.802C701.422 468.106 716.299 467.149 738.397 465.931C746.401 465.757 754.753 465.322 763.453 464.626C763.627 463.06 763.714 460.276 763.714 456.274V445.573L763.453 425.998C753.013 423.388 737.266 422.083 716.212 422.083C702.64 422.083 689.155 422.605 675.757 423.649C662.359 424.519 652.702 425.476 646.786 426.52V463.843L646.525 524.134C646.351 535.096 646.264 551.8 646.264 574.246L646.525 603.739C647.743 604.435 653.572 604.783 664.012 604.783C676.366 604.783 685.675 604.435 691.939 603.739V595.648C692.287 570.94 692.983 552.322 694.027 539.794H694.288C697.768 539.098 703.336 538.402 710.992 537.706C718.648 537.01 724.216 536.401 727.696 535.879C728.218 535.879 728.479 535.705 728.479 535.357ZM892.163 599.563C892.163 603.913 891.815 606.958 891.119 608.698C890.597 610.438 889.814 611.395 888.77 611.569C887.726 611.743 885.464 611.83 881.984 611.83L877.547 611.569C874.589 611.569 871.892 611.656 869.456 611.83C858.32 612.178 842.834 612.352 822.998 612.352C803.858 612.352 788.372 612.265 776.54 612.091V606.871H771.32V599.563C772.538 575.029 773.147 546.145 773.147 512.911C773.147 475.675 772.799 444.268 772.103 418.69C774.365 417.82 777.497 417.124 781.499 416.602C785.675 415.906 789.851 415.558 794.027 415.558C804.467 415.558 812.819 416.95 819.083 419.734L818.822 423.127C819.692 423.475 820.562 423.823 821.432 424.171C822.302 424.345 823.259 424.606 824.303 424.954C823.955 437.482 823.781 447.835 823.781 456.013C823.781 466.453 823.955 482.113 824.303 502.993L824.564 549.19V559.63C848.228 561.022 865.454 561.718 876.242 561.718C879.548 561.718 883.115 561.544 886.943 561.196V566.938L892.163 566.416C892.163 570.07 891.989 573.637 891.641 577.117L891.38 582.598L891.641 585.208V585.469L892.163 599.563ZM883.55 577.639C883.55 576.247 883.724 573.985 884.072 570.853L884.333 564.328C883.985 564.502 882.68 564.589 880.418 564.589C877.112 564.589 868.847 564.241 855.623 563.545C852.491 563.371 847.445 563.11 840.485 562.762C833.699 562.414 828.392 562.24 824.564 562.24C821.78 562.24 819.17 562.414 816.734 562.762V562.501L816.995 542.143C816.995 532.573 816.821 517.696 816.473 497.512C816.125 477.676 815.951 462.712 815.951 452.62C815.951 445.312 816.125 434.872 816.473 421.3C811.601 419.212 804.119 418.168 794.027 418.168C790.025 418.168 786.197 418.429 782.543 418.951C779.063 419.299 776.453 419.821 774.713 420.517C775.409 455.143 775.757 485.941 775.757 512.911C775.757 546.145 775.148 575.029 773.93 599.563V604.261C778.976 604.261 782.63 604.348 784.892 604.522L820.649 604.783C834.569 604.783 849.62 604.522 865.802 604C867.89 603.826 870.326 603.739 873.11 603.739L878.852 604C881.114 604 882.593 603.478 883.289 602.434C883.985 601.39 884.333 598.693 884.333 594.343L883.811 580.249L883.55 577.639ZM1006.46 453.664C1008.73 458.536 1010.12 463.582 1010.64 468.802C1011.34 473.848 1011.68 480.025 1011.68 487.333V503.515C1011.68 506.125 1011.6 512.476 1011.42 522.568C1011.25 532.66 1010.81 541.969 1010.12 550.495L1009.34 559.108C1007.94 575.116 1004.46 587.296 998.896 595.648C994.024 602.434 986.803 607.393 977.233 610.525C967.837 613.831 958.18 615.484 948.262 615.484C936.43 615.484 926.251 613.57 917.725 609.742C909.199 606.088 902.674 599.563 898.15 590.167V590.428C895.366 585.73 893.539 580.336 892.669 574.246C891.799 568.156 891.277 560.848 891.103 552.322C891.103 548.32 891.016 545.362 890.842 543.448C889.972 528.658 889.537 514.912 889.537 502.21V492.553C889.537 477.067 890.929 463.495 893.713 451.837C896.497 440.179 902.413 431.74 911.461 426.52C922.423 421.126 934.429 418.429 947.479 418.429C956.527 418.429 965.314 419.995 973.84 423.127C982.54 426.085 989.326 430.522 994.198 436.438C999.94 442.18 1004.03 448.009 1006.46 453.925V453.664ZM947.479 421.3C939.475 421.3 931.732 422.344 924.25 424.432C916.768 426.346 910.939 429.391 906.763 433.567C900.673 440.353 896.671 448.705 894.757 458.623C893.017 468.367 892.147 479.677 892.147 492.553V501.688C892.147 508.648 892.321 516.478 892.669 525.178C893.017 533.704 893.278 539.707 893.452 543.187L894.235 560.152C894.583 578.074 898.846 590.515 907.024 597.475C915.376 604.261 927.382 607.654 943.042 607.654C952.612 607.654 961.921 606.088 970.969 602.956C980.191 599.824 987.064 595.126 991.588 588.862C996.982 580.51 1000.29 568.765 1001.51 553.627L1002.29 545.014C1003.16 533.878 1003.59 520.654 1003.59 505.342V478.981C1003.59 472.543 1003.25 467.062 1002.55 462.538C1002.03 458.014 1000.81 453.664 998.896 449.488C995.59 440.092 989.152 433.045 979.582 428.347C970.012 423.649 959.311 421.3 947.479 421.3ZM970.969 525.7V534.574C970.969 543.448 970.621 549.712 969.925 553.366C969.403 557.02 967.837 560.239 965.227 563.023C963.139 565.633 960.355 567.634 956.875 569.026C953.395 570.418 949.828 571.114 946.174 571.114C939.562 571.114 934.516 569.461 931.036 566.155C927.73 562.675 925.468 558.499 924.25 553.627C923.206 548.755 922.423 542.404 921.901 534.574C921.553 529.006 921.205 525.091 920.857 522.829C920.509 516.913 920.335 512.476 920.335 509.518C920.335 474.544 929.992 457.057 949.306 457.057C958.18 457.057 963.922 461.32 966.532 469.846C969.142 478.198 970.447 486.724 970.447 495.424L970.969 513.172V525.7ZM967.837 494.38C967.663 492.988 967.402 489.595 967.054 484.201C966.88 478.633 965.749 474.022 963.661 470.368C961.747 466.714 958.789 464.887 954.787 464.887C949.393 464.887 944.434 466.975 939.91 471.151C935.386 475.327 932.428 480.286 931.036 486.028V485.767C929.296 493.423 928.426 503.08 928.426 514.738C928.426 520.48 928.513 524.83 928.687 527.788V527.527C929.383 532.399 929.905 537.271 930.253 542.143C930.427 543.187 930.688 546.058 931.036 550.756C931.558 555.454 932.428 559.891 933.646 564.067L933.385 563.806L934.168 565.372C937.648 567.46 941.65 568.504 946.174 568.504C953.308 568.504 959.05 566.068 963.4 561.196L963.139 561.457C965.575 558.499 967.054 555.628 967.576 552.844C968.098 549.886 968.359 544.231 968.359 535.879V525.7V513.172L967.837 495.424V494.38ZM1135.24 427.825C1133.85 445.399 1131.15 473.587 1127.15 512.389C1122.8 553.453 1119.67 585.991 1117.75 610.003C1115.14 610.699 1112.1 611.047 1108.62 611.047H1092.7C1092.18 610.351 1091.13 608.611 1089.57 605.827H1087.48C1085.39 603.043 1083.65 599.737 1082.26 595.909C1080.87 591.907 1079.56 587.035 1078.34 581.293L1076.26 573.724C1075.73 575.812 1075.21 577.9 1074.69 579.988C1074.34 581.902 1073.91 583.729 1073.38 585.469C1072.17 591.211 1071.04 595.909 1069.99 599.563C1068.95 603.217 1067.47 606.61 1065.55 609.742C1060.16 610.786 1055.46 611.308 1051.46 611.308C1047.98 611.308 1043.8 610.96 1038.93 610.264L1038.15 605.566C1037.63 605.566 1036.15 605.392 1033.71 605.044L1030.32 581.293C1025.62 547.885 1021.88 518.566 1019.1 493.336C1016.31 468.106 1014.75 443.659 1014.4 419.995C1020.66 418.951 1027.19 418.429 1033.97 418.429C1037.11 418.429 1041.28 418.603 1046.5 418.951L1056.68 419.212C1056.68 421.822 1057.03 423.388 1057.72 423.91C1058.42 424.432 1059.2 424.693 1060.07 424.693C1060.94 424.519 1061.55 424.432 1061.9 424.432C1062.77 434.176 1063.21 448.705 1063.21 468.019V483.418V492.814C1063.21 498.73 1063.38 503.167 1063.73 506.125C1065.47 492.205 1068.16 483.418 1071.82 479.764C1073.38 481.33 1074.78 483.418 1075.99 486.028L1077.04 484.984C1078.78 486.202 1080.26 488.551 1081.48 492.031C1082.69 495.337 1084 500.035 1085.39 506.125L1085.91 487.855C1086.61 457.231 1087.57 434.872 1088.78 420.778C1094.87 419.386 1101.83 418.69 1109.66 418.69C1116.28 418.69 1122.45 418.951 1128.19 419.473L1130.02 422.605L1129.76 424.432L1133.41 424.693L1135.24 427.825ZM1127.15 422.083C1121.41 421.561 1115.58 421.3 1109.66 421.3C1102.18 421.3 1096 421.822 1091.13 422.866V423.127C1090.26 433.219 1089.48 451.75 1088.78 478.72C1088.78 481.852 1088.61 489.769 1088.26 502.471C1087.91 514.999 1087.3 525.526 1086.43 534.052C1085.39 531.268 1083.04 522.655 1079.39 508.213C1075.73 492.553 1073.3 484.201 1072.08 483.157C1072.08 483.157 1071.91 483.592 1071.56 484.462L1068.43 497.512C1067.38 501.514 1066.16 506.299 1064.77 511.867C1063.38 517.261 1061.73 523.525 1059.81 530.659C1058.07 523.873 1056.85 516.13 1056.16 507.43C1055.64 498.73 1055.38 488.464 1055.38 476.632V447.661C1055.38 437.221 1055.03 428.608 1054.33 421.822L1048.59 421.561C1042.33 421.213 1037.45 421.039 1033.97 421.039C1028.41 421.039 1022.75 421.474 1017.01 422.344V422.605C1017.36 445.921 1018.75 468.802 1021.18 491.248C1023.79 513.52 1027.62 542.926 1032.67 579.466C1033.54 584.512 1034.67 592.255 1036.06 602.695H1036.32C1040.32 603.217 1043.63 603.478 1046.24 603.478C1049.89 603.478 1054.16 603.043 1059.03 602.173C1060.25 600.259 1061.38 597.388 1062.42 593.56C1063.47 589.732 1064.42 585.817 1065.29 581.815C1066.69 575.725 1067.9 570.766 1068.95 566.938C1070.17 563.11 1071.56 560.413 1073.12 558.847H1073.38C1074.78 560.935 1076.08 564.154 1077.3 568.504C1078.69 572.68 1080 576.943 1081.21 581.293C1082.78 587.731 1084.09 592.516 1085.13 595.648C1086.17 598.78 1087.39 601.303 1088.78 603.217H1106.01C1107.05 603.217 1108.45 603.043 1110.19 602.695C1111.58 585.991 1113.23 567.547 1115.14 547.363C1117.23 527.179 1118.62 513.52 1119.32 506.386C1123.15 469.15 1125.85 441.136 1127.41 422.344L1127.15 422.083Z" fill="#C29D48"/>
</svg>
