<svg width="170" height="50" viewBox="0 0 170 50" fill="none" xmlns="http://www.w3.org/2000/svg">
<g clip-path="url(#clip0_792_2)">
<rect width="170" height="50" fill="#272727"/>
<path d="M30.95 9.55C31.1167 13.1167 31.2 16.3333 31.2 19.2C31.2 24.9667 30.9167 30.4 30.35 35.5C30.0167 38.1 28.9167 40.2167 27.05 41.85C25.1833 43.4833 22.8667 44.3 20.1 44.3C18 44.3 15.9833 43.9 14.05 43.1C12.1167 42.3333 10.5333 41.2167 9.3 39.75C8.06667 38.2833 7.41667 36.5833 7.35 34.65C7.35 32.25 7.38333 28.65 7.45 23.85C7.55 20.15 7.6 16.4 7.6 12.6C7.6 10.2333 7.58333 8.53333 7.55 7.5C8.38333 7.5 9.01667 7.48333 9.45 7.45L11.55 7.4C13.1167 7.4 14.4667 7.56666 15.6 7.9L15.55 8.65C15.65 8.68333 15.8167 8.71667 16.05 8.75C16.2833 8.78333 16.4667 8.83333 16.6 8.9C16.4667 11.4 16.4 14.3667 16.4 17.8C16.4 22.6 16.6167 27.9333 17.05 33.8V33.7C17.1167 34.0667 17.2667 34.3167 17.5 34.45C17.7667 34.55 18.1 34.6 18.5 34.6C19.1333 34.6 19.7 34.4167 20.2 34.05C20.7 33.6833 21.0333 33.1667 21.2 32.5V32.6C21.3667 28.8 21.45 24.2167 21.45 18.85C21.5167 13.9833 21.5833 10.35 21.65 7.95C23.45 7.68333 25.1667 7.55 26.8 7.55C27.5 7.55 28.0833 7.6 28.55 7.7C29.0167 7.76667 29.4167 7.91667 29.75 8.15L29.95 8.55V8.8C30.3167 8.9 30.5833 9.01667 30.75 9.15L30.95 9.55ZM26.7 8.05C25.4667 8.05 23.95 8.16667 22.15 8.4C22.1167 9.8 22.0833 11.5 22.05 13.5C22.0167 15.4667 22 16.9833 22 18.05C21.9333 24.55 21.8333 29.4 21.7 32.6C21.5333 33.3667 21.1333 33.9833 20.5 34.45C19.9 34.8833 19.2333 35.1 18.5 35.1C17.8333 35.1 17.2167 34.9167 16.65 34.55C16.1167 34.15 15.75 33.5833 15.55 32.85C15.1167 27.65 14.9 22.3 14.9 16.8C14.9 13.6333 14.9667 10.8 15.1 8.3V8.25C14.2 8.01667 13.0833 7.9 11.75 7.9L9.65 7.95C9.28333 7.98333 8.75 8 8.05 8H8L8.05 8.05L8.1 12.75C8.1 16.4167 8.05 20.1 7.95 23.8C7.88333 28.6 7.85 32.2167 7.85 34.65C7.88333 36.4167 8.45 37.9167 9.55 39.15C10.65 40.3833 12.05 41.3 13.75 41.9C15.45 42.5 17.2333 42.8 19.1 42.8C21.9 42.8 24.15 42.05 25.85 40.55C27.55 39.05 28.55 37.0167 28.85 34.45C29.4167 29.75 29.7 24.3333 29.7 18.2C29.7 15.3333 29.6167 12.1167 29.45 8.55C28.9167 8.21667 28 8.05 26.7 8.05ZM48.0941 42.5H47.5441L45.3441 37.7C44.6441 36.2667 43.9608 34.8333 43.2941 33.4C42.6608 31.9333 42.1441 30.65 41.7441 29.55V35.05C41.7441 39.1167 41.7775 41.9 41.8441 43.4C41.1441 43.6333 40.2441 43.75 39.1441 43.75C38.5441 43.75 38.0108 43.7333 37.5441 43.7C37.1108 43.6667 36.7441 43.6333 36.4441 43.6C35.6108 43.5 34.7441 43.45 33.8441 43.45V42.45H32.8441V38.45C32.8441 36.35 32.8108 33.3 32.7441 29.3L32.6941 20.4C32.6941 15.1667 32.8608 10.5667 33.1941 6.6C33.9941 6.4 34.8941 6.3 35.8941 6.3C36.5941 6.3 37.5275 6.4 38.6941 6.6C39.8608 6.76667 40.4775 6.98333 40.5441 7.25C40.6441 7.61667 40.8275 7.86667 41.0941 8C41.3608 8.1 41.5108 8.18333 41.5441 8.25C42.1108 9.65 42.7608 11.15 43.4941 12.75C44.2275 14.35 45.2941 16.6167 46.6941 19.55V18.5C46.6941 17.6 46.6608 16.3833 46.5941 14.85L46.5441 11.25C46.5108 10.8167 46.5275 10.1333 46.5941 9.2L46.6441 7.45V6.35C47.8108 6.11666 49.1775 6 50.7441 6C51.9441 6 53.2108 6.13333 54.5441 6.4V7.25L55.5441 7.4V23.9L55.5941 32.45L55.5441 35.3V40L55.5941 42L55.5441 43.4C55.4441 43.4333 55.2108 43.5 54.8441 43.6C54.4775 43.7 54.0108 43.75 53.4441 43.75C52.6441 43.75 51.7941 43.7 50.8941 43.6C49.8275 43.5333 49.0441 43.5 48.5441 43.5L48.0941 42.5ZM54.0941 41L54.0441 37L54.0941 31.45V27.15C54.0941 25.25 54.0775 23.8333 54.0441 22.9V6.8C53.1108 6.6 52.0108 6.5 50.7441 6.5C49.5108 6.5 48.3108 6.6 47.1441 6.8C47.0775 9 47.0441 10.4833 47.0441 11.25L47.0941 14.7C47.1608 16.3 47.1941 17.5667 47.1941 18.5C47.1941 19.1 47.1608 19.7 47.0941 20.3C47.0275 20.8667 46.9441 21.1833 46.8441 21.25C46.7775 21.25 46.1941 20.15 45.0941 17.95C43.9941 15.7167 43.1775 14.0333 42.6441 12.9C42.3775 12.2667 42.1108 11.6833 41.8441 11.15C41.5775 10.6167 41.3775 10.2167 41.2441 9.95L40.6941 8.8L40.0441 7.3C40.0441 7.16667 39.5108 7.05 38.4441 6.95C37.3775 6.85 36.5275 6.8 35.8941 6.8C34.9608 6.8 34.2108 6.86666 33.6441 7C33.3441 10.6333 33.1941 15.1 33.1941 20.4L33.2441 29.35C33.3108 33.2833 33.3441 36.3167 33.3441 38.45V41.95C34.1108 41.95 34.8941 42 35.6941 42.1C35.9608 42.1333 36.2941 42.1667 36.6941 42.2C37.0941 42.2333 37.5775 42.25 38.1441 42.25C38.9775 42.25 39.7108 42.1667 40.3441 42C40.3108 41.6333 40.2941 41 40.2941 40.1V37.85C40.2941 34.85 40.3275 31.9833 40.3941 29.25C40.4608 26.5167 40.5441 25.15 40.6441 25.15C40.7441 25.15 40.9608 25.65 41.2941 26.65L41.7941 28.15C42.4275 29.9167 43.7275 32.95 45.6941 37.25L47.8441 42C48.5775 42 49.3441 42.05 50.1441 42.15C51.2108 42.2167 51.9775 42.25 52.4441 42.25C53.0441 42.25 53.5941 42.1667 54.0941 42V41ZM67.7465 7.35H68.7465V8.05C68.7465 10.6833 68.7298 13 68.6965 15C68.6632 17 68.6298 18.6667 68.5965 20C68.4632 25.4 68.3965 29.5 68.3965 32.3C68.3965 35.9333 68.4965 39.4833 68.6965 42.95C68.1632 43.4833 66.9465 43.75 65.0465 43.75L62.7965 43.7C62.2965 43.6667 61.5965 43.65 60.6965 43.65C59.9632 43.65 59.2465 43.7333 58.5465 43.9L58.5965 42.7C58.0298 42.7667 57.6798 42.8333 57.5465 42.9C57.7798 39.4667 57.8965 36.3333 57.8965 33.5C57.8965 31.6 57.8798 29.9333 57.8465 28.5C57.8132 27.0333 57.7798 25.8333 57.7465 24.9C57.6132 21.1 57.5465 18.2167 57.5465 16.25C57.5465 12.9833 57.7132 9.63333 58.0465 6.2C58.5132 6.13333 58.8132 6.1 58.9465 6.1C59.8798 6.1 60.8465 6.13333 61.8465 6.2C62.6132 6.3 63.6132 6.35 64.8465 6.35H67.7465V7.35ZM64.8965 6.85C64.0965 6.85 62.7965 6.8 60.9965 6.7C59.9965 6.63333 59.2298 6.6 58.6965 6.6H58.4965V6.7C58.1965 9.4 58.0465 12.5667 58.0465 16.2C58.0465 18.1333 58.0632 19.8167 58.0965 21.25C58.1298 22.6833 58.1632 23.8833 58.1965 24.85C58.3298 28.7833 58.3965 31.7667 58.3965 33.8C58.3965 36.6 58.2965 39.4 58.0965 42.2C58.5632 42.1333 58.9465 42.1 59.2465 42.1C59.6465 42.1 60.3798 42.1333 61.4465 42.2C62.6465 42.2667 63.5798 42.3 64.2465 42.3C65.8465 42.3 66.8298 42.1167 67.1965 41.75C66.9965 38.15 66.8965 34.5167 66.8965 30.85C66.8965 28.1167 66.9632 24.1167 67.0965 18.85C67.1298 17.5167 67.1632 15.8667 67.1965 13.9C67.2298 11.9333 67.2465 9.65 67.2465 7.05V6.85H64.8965ZM88.0848 21.1C88.3181 21.8 88.4348 22.5667 88.4348 23.4C88.4348 24.2 88.4181 24.8167 88.3848 25.25L88.3348 27.5C88.3348 28 88.3514 28.45 88.3848 28.85C88.4181 29.2167 88.4348 29.55 88.4348 29.85C88.4348 30.1833 87.9514 30.4333 86.9848 30.6C86.0514 30.7333 84.7348 30.8667 83.0348 31C82.8014 31.0333 82.5681 31.05 82.3348 31.05C82.1348 31.05 81.9514 31.0667 81.7848 31.1C81.5514 34.4667 81.4348 37.9 81.4348 41.4V43.4C79.9681 43.5667 78.0181 43.65 75.5848 43.65C73.4514 43.65 72.1514 43.4833 71.6848 43.15V42.5C71.1514 42.4 70.8181 42.2833 70.6848 42.15C70.6848 35.35 70.7014 30.3667 70.7348 27.2L70.7848 7.55C71.9181 7.31667 73.8514 7.11666 76.5848 6.95C79.3181 6.75 81.9848 6.65 84.5848 6.65C88.5514 6.65 91.7348 6.93333 94.1348 7.5V8.3C94.2681 8.36666 94.6014 8.43333 95.1348 8.5C95.1348 9.33333 95.1514 10.0167 95.1848 10.55L95.2348 13.35C95.2348 14.1167 95.1848 15.25 95.0848 16.75L90.4848 17C86.1848 17.2333 83.2348 17.4167 81.6348 17.55C81.4348 18.2833 81.3348 18.8667 81.3348 19.3L81.2848 19.85C81.2848 20.1833 81.5348 20.35 82.0348 20.35C84.1014 20.35 85.7848 20.2667 87.0848 20.1C87.1848 20.3333 87.2681 20.7 87.3348 21.2L88.0848 21.1ZM86.9348 28.85C86.8681 28.1167 86.8348 27.5 86.8348 27L86.8848 24.6C86.9181 24.1 86.9348 23.4 86.9348 22.5C86.9348 21.5667 86.8848 20.95 86.7848 20.65C86.2181 20.75 85.4181 20.8 84.3848 20.8C83.3848 20.8 82.7348 20.8 82.4348 20.8C81.7348 20.8 81.2014 20.75 80.8348 20.65C80.5014 20.55 80.2514 20.3333 80.0848 20C79.9181 19.6333 79.8348 19.0667 79.8348 18.3C79.8348 17.4667 79.9848 16.7333 80.2848 16.1C81.7514 15.9667 84.6014 15.7833 88.8348 15.55C90.3681 15.5167 91.9681 15.4333 93.6348 15.3C93.6681 15 93.6848 14.4667 93.6848 13.7V11.65L93.6348 7.9C91.6348 7.4 88.6181 7.15 84.5848 7.15C81.9848 7.15 79.4014 7.25 76.8348 7.45C74.2681 7.61666 72.4181 7.8 71.2848 8V15.15L71.2348 26.7C71.2014 28.8 71.1848 32 71.1848 36.3L71.2348 41.95C71.4681 42.0833 72.5848 42.15 74.5848 42.15C76.9514 42.15 78.7348 42.0833 79.9348 41.95V40.4C80.0014 35.6667 80.1348 32.1 80.3348 29.7H80.3848C81.0514 29.5667 82.1181 29.4333 83.5848 29.3C85.0514 29.1667 86.1181 29.05 86.7848 28.95C86.8848 28.95 86.9348 28.9167 86.9348 28.85ZM118.292 41.15C118.292 41.9833 118.225 42.5667 118.092 42.9C117.992 43.2333 117.842 43.4167 117.642 43.45C117.442 43.4833 117.008 43.5 116.342 43.5L115.492 43.45C114.925 43.45 114.408 43.4667 113.942 43.5C111.808 43.5667 108.842 43.6 105.042 43.6C101.375 43.6 98.4085 43.5833 96.1418 43.55V42.55H95.1418V41.15C95.3751 36.45 95.4918 30.9167 95.4918 24.55C95.4918 17.4167 95.4251 11.4 95.2918 6.5C95.7251 6.33333 96.3251 6.2 97.0918 6.1C97.8918 5.96666 98.6918 5.9 99.4918 5.9C101.492 5.9 103.092 6.16666 104.292 6.7L104.242 7.35C104.408 7.41666 104.575 7.48333 104.742 7.55C104.908 7.58333 105.092 7.63333 105.292 7.7C105.225 10.1 105.192 12.0833 105.192 13.65C105.192 15.65 105.225 18.65 105.292 22.65L105.342 31.5V33.5C109.875 33.7667 113.175 33.9 115.242 33.9C115.875 33.9 116.558 33.8667 117.292 33.8V34.9L118.292 34.8C118.292 35.5 118.258 36.1833 118.192 36.85L118.142 37.9L118.192 38.4V38.45L118.292 41.15ZM116.642 36.95C116.642 36.6833 116.675 36.25 116.742 35.65L116.792 34.4C116.725 34.4333 116.475 34.45 116.042 34.45C115.408 34.45 113.825 34.3833 111.292 34.25C110.692 34.2167 109.725 34.1667 108.392 34.1C107.092 34.0333 106.075 34 105.342 34C104.808 34 104.308 34.0333 103.842 34.1V34.05L103.892 30.15C103.892 28.3167 103.858 25.4667 103.792 21.6C103.725 17.8 103.692 14.9333 103.692 13C103.692 11.6 103.725 9.6 103.792 7C102.858 6.6 101.425 6.4 99.4918 6.4C98.7251 6.4 97.9918 6.45 97.2918 6.55C96.6251 6.61667 96.1251 6.71667 95.7918 6.85C95.9251 13.4833 95.9918 19.3833 95.9918 24.55C95.9918 30.9167 95.8751 36.45 95.6418 41.15V42.05C96.6085 42.05 97.3085 42.0667 97.7418 42.1L104.592 42.15C107.258 42.15 110.142 42.1 113.242 42C113.642 41.9667 114.108 41.95 114.642 41.95L115.742 42C116.175 42 116.458 41.9 116.592 41.7C116.725 41.5 116.792 40.9833 116.792 40.15L116.692 37.45L116.642 36.95ZM140.189 13.2C140.622 14.1333 140.889 15.1 140.989 16.1C141.122 17.0667 141.189 18.25 141.189 19.65V22.75C141.189 23.25 141.172 24.4667 141.139 26.4C141.105 28.3333 141.022 30.1167 140.889 31.75L140.739 33.4C140.472 36.4667 139.805 38.8 138.739 40.4C137.805 41.7 136.422 42.65 134.589 43.25C132.789 43.8833 130.939 44.2 129.039 44.2C126.772 44.2 124.822 43.8333 123.189 43.1C121.555 42.4 120.305 41.15 119.439 39.35V39.4C118.905 38.5 118.555 37.4667 118.389 36.3C118.222 35.1333 118.122 33.7333 118.089 32.1C118.089 31.3333 118.072 30.7667 118.039 30.4C117.872 27.5667 117.789 24.9333 117.789 22.5V20.65C117.789 17.6833 118.055 15.0833 118.589 12.85C119.122 10.6167 120.255 9 121.989 8C124.089 6.96667 126.389 6.45 128.889 6.45C130.622 6.45 132.305 6.75 133.939 7.35C135.605 7.91666 136.905 8.76666 137.839 9.9C138.939 11 139.722 12.1167 140.189 13.25V13.2ZM128.889 7C127.355 7 125.872 7.2 124.439 7.6C123.005 7.96666 121.889 8.55 121.089 9.35C119.922 10.65 119.155 12.25 118.789 14.15C118.455 16.0167 118.289 18.1833 118.289 20.65V22.4C118.289 23.7333 118.322 25.2333 118.389 26.9C118.455 28.5333 118.505 29.6833 118.539 30.35L118.689 33.6C118.755 37.0333 119.572 39.4167 121.139 40.75C122.739 42.05 125.039 42.7 128.039 42.7C129.872 42.7 131.655 42.4 133.389 41.8C135.155 41.2 136.472 40.3 137.339 39.1C138.372 37.5 139.005 35.25 139.239 32.35L139.389 30.7C139.555 28.5667 139.639 26.0333 139.639 23.1V18.05C139.639 16.8167 139.572 15.7667 139.439 14.9C139.339 14.0333 139.105 13.2 138.739 12.4C138.105 10.6 136.872 9.25 135.039 8.35C133.205 7.45 131.155 7 128.889 7ZM133.389 27V28.7C133.389 30.4 133.322 31.6 133.189 32.3C133.089 33 132.789 33.6167 132.289 34.15C131.889 34.65 131.355 35.0333 130.689 35.3C130.022 35.5667 129.339 35.7 128.639 35.7C127.372 35.7 126.405 35.3833 125.739 34.75C125.105 34.0833 124.672 33.2833 124.439 32.35C124.239 31.4167 124.089 30.2 123.989 28.7C123.922 27.6333 123.855 26.8833 123.789 26.45C123.722 25.3167 123.689 24.4667 123.689 23.9C123.689 17.2 125.539 13.85 129.239 13.85C130.939 13.85 132.039 14.6667 132.539 16.3C133.039 17.9 133.289 19.5333 133.289 21.2L133.389 24.6V27ZM132.789 21C132.755 20.7333 132.705 20.0833 132.639 19.05C132.605 17.9833 132.389 17.1 131.989 16.4C131.622 15.7 131.055 15.35 130.289 15.35C129.255 15.35 128.305 15.75 127.439 16.55C126.572 17.35 126.005 18.3 125.739 19.4V19.35C125.405 20.8167 125.239 22.6667 125.239 24.9C125.239 26 125.255 26.8333 125.289 27.4V27.35C125.422 28.2833 125.522 29.2167 125.589 30.15C125.622 30.35 125.672 30.9 125.739 31.8C125.839 32.7 126.005 33.55 126.239 34.35L126.189 34.3L126.339 34.6C127.005 35 127.772 35.2 128.639 35.2C130.005 35.2 131.105 34.7333 131.939 33.8L131.889 33.85C132.355 33.2833 132.639 32.7333 132.739 32.2C132.839 31.6333 132.889 30.55 132.889 28.95V27V24.6L132.789 21.2V21ZM164.859 8.25C164.592 11.6167 164.075 17.0167 163.309 24.45C162.475 32.3167 161.875 38.55 161.509 43.15C161.009 43.2833 160.425 43.35 159.759 43.35H156.709C156.609 43.2167 156.409 42.8833 156.109 42.35H155.709C155.309 41.8167 154.975 41.1833 154.709 40.45C154.442 39.6833 154.192 38.75 153.959 37.65L153.559 36.2C153.459 36.6 153.359 37 153.259 37.4C153.192 37.7667 153.109 38.1167 153.009 38.45C152.775 39.55 152.559 40.45 152.359 41.15C152.159 41.85 151.875 42.5 151.509 43.1C150.475 43.3 149.575 43.4 148.809 43.4C148.142 43.4 147.342 43.3333 146.409 43.2L146.259 42.3C146.159 42.3 145.875 42.2667 145.409 42.2L144.759 37.65C143.859 31.25 143.142 25.6333 142.609 20.8C142.075 15.9667 141.775 11.2833 141.709 6.75C142.909 6.55 144.159 6.45 145.459 6.45C146.059 6.45 146.859 6.48333 147.859 6.55L149.809 6.6C149.809 7.1 149.875 7.4 150.009 7.5C150.142 7.6 150.292 7.65 150.459 7.65C150.625 7.61667 150.742 7.6 150.809 7.6C150.975 9.46667 151.059 12.25 151.059 15.95V18.9V20.7C151.059 21.8333 151.092 22.6833 151.159 23.25C151.492 20.5833 152.009 18.9 152.709 18.2C153.009 18.5 153.275 18.9 153.509 19.4L153.709 19.2C154.042 19.4333 154.325 19.8833 154.559 20.55C154.792 21.1833 155.042 22.0833 155.309 23.25L155.409 19.75C155.542 13.8833 155.725 9.6 155.959 6.9C157.125 6.63333 158.459 6.5 159.959 6.5C161.225 6.5 162.409 6.55 163.509 6.65L163.859 7.25L163.809 7.6L164.509 7.65L164.859 8.25ZM163.309 7.15C162.209 7.05 161.092 7 159.959 7C158.525 7 157.342 7.1 156.409 7.3V7.35C156.242 9.28333 156.092 12.8333 155.959 18C155.959 18.6 155.925 20.1167 155.859 22.55C155.792 24.95 155.675 26.9667 155.509 28.6C155.309 28.0667 154.859 26.4167 154.159 23.65C153.459 20.65 152.992 19.05 152.759 18.85C152.759 18.85 152.725 18.9333 152.659 19.1L152.059 21.6C151.859 22.3667 151.625 23.2833 151.359 24.35C151.092 25.3833 150.775 26.5833 150.409 27.95C150.075 26.65 149.842 25.1667 149.709 23.5C149.609 21.8333 149.559 19.8667 149.559 17.6V12.05C149.559 10.05 149.492 8.4 149.359 7.1L148.259 7.05C147.059 6.98333 146.125 6.95 145.459 6.95C144.392 6.95 143.309 7.03333 142.209 7.2V7.25C142.275 11.7167 142.542 16.1 143.009 20.4C143.509 24.6667 144.242 30.3 145.209 37.3C145.375 38.2667 145.592 39.75 145.859 41.75H145.909C146.675 41.85 147.309 41.9 147.809 41.9C148.509 41.9 149.325 41.8167 150.259 41.65C150.492 41.2833 150.709 40.7333 150.909 40C151.109 39.2667 151.292 38.5167 151.459 37.75C151.725 36.5833 151.959 35.6333 152.159 34.9C152.392 34.1667 152.659 33.65 152.959 33.35H153.009C153.275 33.75 153.525 34.3667 153.759 35.2C154.025 36 154.275 36.8167 154.509 37.65C154.809 38.8833 155.059 39.8 155.259 40.4C155.459 41 155.692 41.4833 155.959 41.85H159.259C159.459 41.85 159.725 41.8167 160.059 41.75C160.325 38.55 160.642 35.0167 161.009 31.15C161.409 27.2833 161.675 24.6667 161.809 23.3C162.542 16.1667 163.059 10.8 163.359 7.2L163.309 7.15Z" fill="#C29D48"/>
</g>
<defs>
<clipPath id="clip0_792_2">
<rect width="170" height="50" fill="white"/>
</clipPath>
</defs>
</svg>
